<svg xmlns="http://www.w3.org/2000/svg" width="17" height="14" viewBox="0 0 17 14">
  <metadata><?xpacket begin="﻿" id="W5M0MpCehiHzreSzNTczkc9d"?>
<x:xmpmeta xmlns:x="adobe:ns:meta/" x:xmptk="Adobe XMP Core 5.6-c142 79.160924, 2017/07/13-01:06:39        ">
   <rdf:RDF xmlns:rdf="http://www.w3.org/1999/02/22-rdf-syntax-ns#">
      <rdf:Description rdf:about=""/>
   </rdf:RDF>
</x:xmpmeta>
                                                                                                    
                                                                                                    
                                                                                                    
                                                                                                    
                                                                                                    
                                                                                                    
                                                                                                    
                                                                                                    
                                                                                                    
                                                                                                    
                                                                                                    
                                                                                                    
                                                                                                    
                                                                                                    
                                                                                                    
                                                                                                    
                                                                                                    
                                                                                                    
                                                                                                    
                                                                                                    
                           
<?xpacket end="w"?></metadata>
<defs>
    <style>
      .cls-1 {
        fill-rule: evenodd;
      }
    </style>
  </defs>
  <path id="Adresa" class="cls-1" d="M1.632,4.439Q1.954,4.666,3.576,5.79T6.062,7.522q0.095,0.067.4,0.289T6.977,8.172q0.2,0.138.493,0.308a2.873,2.873,0,0,0,.545.256,1.508,1.508,0,0,0,.474.085H8.51a1.508,1.508,0,0,0,.474-0.085A2.868,2.868,0,0,0,9.529,8.48q0.289-.171.493-0.308t0.512-.361q0.308-.223.4-0.289l4.44-3.083a4.508,4.508,0,0,0,1.157-1.167A2.505,2.505,0,0,0,17,1.839,1.454,1.454,0,0,0,16.549.767,1.466,1.466,0,0,0,15.482.321H1.518A1.355,1.355,0,0,0,.394.815,1.916,1.916,0,0,0,0,2.048a2.215,2.215,0,0,0,.522,1.3A4.708,4.708,0,0,0,1.632,4.439Zm14.42,1.015Q12.94,7.559,11.327,8.726q-0.541.4-.877,0.621a5.41,5.41,0,0,1-.9.455,2.734,2.734,0,0,1-1.043.232H8.49A2.734,2.734,0,0,1,7.447,9.8a5.413,5.413,0,0,1-.9-0.455Q6.214,9.125,5.673,8.726,4.392,7.787.958,5.454A5.036,5.036,0,0,1,0,4.628v7.532a1.461,1.461,0,0,0,.446,1.072,1.461,1.461,0,0,0,1.072.446H15.482A1.522,1.522,0,0,0,17,12.161V4.628A5.235,5.235,0,0,1,16.051,5.454Z"/>
</svg>
