<svg version="1.1"
     baseProfile="full"
     width="190" height="160"
     xmlns="http://www.w3.org/2000/svg">

  <rect width="100%" height="100%" fill="transparent" />

  <!-- <circle cx="150" cy="100" r="80" fill="green" />

  <text x="150" y="125" font-size="60" text-anchor="middle" fill="white">SVG</text> -->



  <!-- <path d="M10 10 C 20 20, 40 20, 50 10" stroke="black" fill="transparent"/>
  <path d="M70 10 C 70 20, 120 20, 120 10" stroke="black" fill="transparent"/>
  <path d="M130 10 C 120 20, 180 20, 170 10" stroke="black" fill="transparent"/>
  <path d="M10 60 C 20 80, 40 80, 50 60" stroke="black" fill="transparent"/>
  <path d="M70 60 C 70 80, 110 80, 110 60" stroke="black" fill="transparent"/>
  <path d="M130 60 C 120 80, 180 80, 170 60" stroke="black" fill="transparent"/>
  <path d="M10 110 C 20 140, 40 140, 50 110" stroke="black" fill="transparent"/>
  <path d="M70 110 C 70 140, 110 140, 110 110" stroke="black" fill="transparent"/> -->

  <!-- <path d="M110 130 C 140 120, 140 180, 110 170" stroke="black" fill="red"/> -->

  <!-- <path d="M130 110 C 220 40, 80 40, 170 110" stroke="black" fill="green"/> -->
  <!-- <path d="M130 110 C 120 140, 180 140, 170 110" stroke="black" fill="red"/> -->
    <!-- <circle cx="130" cy="110" r="8" fill="transparent"> -->
  <path d="M10 80 C 40 10, 65 10, 95 80 S 150 150, 180 80" stroke="black" fill="transparent"/>

  
  <!-- <path d="M130 110 C 120 140, 180 140, 170 110" stroke="black" fill="red"/> -->

</svg>