<?xml version="1.0" encoding="utf-8"?>
<!-- Generator: Adobe Illustrator 22.1.0, SVG Export Plug-In . SVG Version: 6.00 Build 0)  -->
<svg version="1.1" id="hit-auto-logotip-2019" xmlns="http://www.w3.org/2000/svg" xmlns:xlink="http://www.w3.org/1999/xlink" x="0px" y="0px"
	 viewBox="0 0 633.9 174.7" style="enable-background:new 0 0 633.9 174.7;" xml:space="preserve">
<style type="text/css">
	.st0{fill:#0073AC;}
	.st1{fill:#C62037;}
	.st2{fill:#FFCE06;}
</style>
<g>
	<g>
		<path d="M234.5,58.6V27.9h15.2v78h-15.2V71h-28.1v34.9h-15.2v-78h15.2v30.7H234.5z"/>
		<path d="M276.1,105.9h-15.2v-78h15.2V105.9z"/>
		<path d="M312.5,105.9h-15.2V41.1h-15.7V27.9h46.7v13.2h-15.7V105.9z"/>
		<path d="M379.7,89.5l-6.4,16.4h-16l30.4-80.1h11.8l29.6,80.1h-16.2l-6-16.4H379.7z M392.8,48.7h-0.2L384,77h18.5L392.8,48.7z"/>
		<path d="M433.3,27.9h15.2v43.7c0,9.6,0.8,23.2,13.8,23.2c12.9,0,13.8-13.6,13.8-23.2V27.9h15.2v46.7c0,19-8.1,33.4-29,33.4
			c-20.9,0-29-14.4-29-33.4V27.9z"/>
		<path d="M527.3,105.9h-15.2V41.1h-15.7V27.9H543v13.2h-15.7V105.9z"/>
		<path d="M583.5,108c-23.8,0-38.6-18.2-38.6-41.2c0-23.2,15.3-41,38.6-41c23.3,0,38.6,17.8,38.6,41C622.1,89.8,607.3,108,583.5,108
			z M583.5,40.8c-14.4,0-22.9,12.7-22.9,25.3c0,12,6,26.8,22.9,26.8c16.9,0,22.9-14.8,22.9-26.8C606.4,53.6,597.9,40.8,583.5,40.8z"
			/>
	</g>
	<g>
		<path d="M203.1,140L203.1,140l5.3-15.8h4.9l-9.1,24h-2.7l-8.9-24h4.9L203.1,140z"/>
		<path d="M217.1,142.7l-1.9,4.9h-4.8l9.1-24h3.5l8.9,24h-4.9l-1.8-4.9H217.1z M221.1,130.5L221.1,130.5l-2.6,8.5h5.6L221.1,130.5z"
			/>
		<path d="M245.9,129.4c-0.9-1.2-2-1.9-3.5-1.9c-1.5,0-2.9,1.1-2.9,2.6c0,3.9,9.3,2.3,9.3,10.2c0,4.7-2.9,8-7.7,8
			c-3.2,0-5.6-1.9-7.2-4.6l3-2.9c0.6,1.8,2.3,3.4,4.2,3.4c1.9,0,3-1.6,3-3.4c0-2.4-2.2-3.1-4.1-3.8c-3-1.2-5.2-2.8-5.2-6.4
			c0-3.9,2.9-7,6.8-7c2.1,0,5,1,6.4,2.6L245.9,129.4z M238.2,116.5l3.7,3.2l3.7-3.2l1.9,2l-5.6,4.8l-5.5-4.8L238.2,116.5z"/>
		<path d="M273.8,148.3c-7.1,0-11.6-5.5-11.6-12.4c0-7,4.6-12.3,11.6-12.3c7,0,11.6,5.3,11.6,12.3
			C285.4,142.8,280.9,148.3,273.8,148.3z M273.8,128.1c-4.3,0-6.9,3.8-6.9,7.6c0,3.6,1.8,8,6.9,8s6.9-4.4,6.9-8
			C280.7,132,278.1,128.1,273.8,128.1z"/>
		<path d="M306.7,133.1L306.7,133.1l-5.4,14.8h-1.6l-5.1-14.8h-0.1l-2.1,14.5h-4.6l3.9-24h3.2l5.8,15.4l5.5-15.4h3.3l3.5,24h-4.6
			L306.7,133.1z"/>
		<path d="M321.3,147.7h-4.6v-23.4h4.6V147.7z"/>
		<path d="M330.7,143.7h6.5v4h-11v-23.4h4.6V143.7z"/>
		<path d="M349,139.7c0,2.2-0.1,4-1.4,5.9c-1.2,1.8-3.1,2.6-5.3,2.6c-1.7,0-3.4-1-4.6-2.2l2.9-3.4c0.2,0.7,1,1.5,1.8,1.5
			c2.2,0,2-3.8,2-5.3v-14.7h4.6V139.7z"/>
		<path d="M358.4,128.2v5.2h7.3v4h-7.3v6.3h7.5v4h-12.1v-23.4h12.1v4H358.4z"/>
		<path d="M370.5,123.6h3.3l12.3,16.4h0.1v-15.8h4.6v23.9h-3.3l-12.3-16.4h-0.1v15.9h-4.6V123.6z"/>
		<path d="M400.2,147.7h-4.6v-23.4h4.6V147.7z"/>
		<path d="M415.6,124.2h6.5c6.8,0,11.3,5.1,11.3,11.7c0,6.6-4.7,11.7-11.3,11.7h-6.5V124.2z M420.2,143.7h0.7c5.6,0,7.8-3.1,7.8-7.7
			c0-5.1-2.6-7.7-7.8-7.7h-0.7V143.7z"/>
		<path d="M441.8,147.7h-4.6v-23.4h4.6V147.7z"/>
		<path d="M451.2,143.7h6.5v4h-11v-23.4h4.6V143.7z"/>
		<path d="M465.3,128.2v5.2h7.3v4h-7.3v6.3h7.5v4h-12.1v-23.4h12.1v4H465.3z"/>
		<path d="M493.3,147.7h-5.5l-5.7-9.4H482v9.4h-4.6v-23.4h6.2c4.6,0,7.8,2.1,7.8,7.1c0,3-1.6,6-4.8,6.5L493.3,147.7z M482,135h0.6
			c2.5,0,4.3-0.7,4.3-3.6c0-2.9-1.8-3.4-4.3-3.4H482V135z"/>
		<path d="M515.3,140L515.3,140l5.3-15.8h4.9l-9.1,24h-2.7l-8.9-24h4.9L515.3,140z"/>
		<path d="M538.7,148.3c-7.1,0-11.6-5.5-11.6-12.4c0-7,4.6-12.3,11.6-12.3c7,0,11.6,5.3,11.6,12.3
			C550.3,142.8,545.9,148.3,538.7,148.3z M538.7,128.1c-4.3,0-6.9,3.8-6.9,7.6c0,3.6,1.8,8,6.9,8c5.1,0,6.9-4.4,6.9-8
			C545.6,132,543,128.1,538.7,128.1z"/>
		<path d="M569.6,143.7v4h-17l10.3-19.4h-8.7v-4h16l-10.3,19.4H569.6z"/>
		<path d="M578.1,147.7h-4.6v-23.4h4.6V147.7z"/>
		<path d="M587.5,143.7h6.5v4h-11v-23.4h4.6V143.7z"/>
		<path d="M601.8,142.7l-1.9,4.9H595l9.1-24h3.5l8.9,24h-4.9l-1.8-4.9H601.8z M605.7,130.5L605.7,130.5l-2.6,8.5h5.6L605.7,130.5z"
			/>
	</g>
	<g>
		<path class="st0" d="M41,87.4c0,20.5,8.2,39.1,21.4,52.7c-13.2-0.7-25.8-5-36.8-12.3l-3.6-2.4c-6.5-11.2-10.2-24.1-10.2-37.9
			c0-13.8,3.7-26.8,10.2-37.9l3.6-2.4c11-7.4,23.6-11.6,36.8-12.3C49.1,48.3,41,66.9,41,87.4z"/>
		<path class="st1" d="M138,83.5c-3.6-10.6-9.6-20.5-18-28.9c-26-26-66.2-29.1-95.5-9.3c2.7-4,5.8-7.8,9.3-11.3
			C58.4,9.2,96,5.2,124.8,21.9l2.6,3.9C139.2,43.2,142.5,64.1,138,83.5z"/>
		<path class="st2" d="M129.2,24.6c4,2.7,7.8,5.8,11.3,9.3c29.5,29.5,29.5,77.3,0,106.8c-29.5,29.5-77.3,29.5-106.8,0
			c-3.5-3.5-6.6-7.3-9.3-11.3c29.4,19.8,69.5,16.7,95.5-9.3C145.9,94.2,149,54,129.2,24.6z"/>
	</g>
</g>
</svg>
