<svg height="460pt" viewBox="-53 0 460 460.00148" width="460pt" xmlns="http://www.w3.org/2000/svg"><path d="m118.101562 53h89v81h-89zm0 0"/><path d="m221.101562 46v88h79v-134h-98v39h12.5c3.863282 0 6.5 3.132812 6.5 7zm0 0"/><path d="m54.445312 460h245.308594c15.890625.117188 31.074219-6.546875 41.746094-18.320312 9.472656-10.316407 13.992188-24.234376 12.386719-38.144532l-29.429688-255.535156h-294.71875l-29.421875 255.535156c-1.601562 13.910156 2.917969 27.832032 12.390625 38.148438 10.671875 11.769531 25.851563 18.429687 41.738281 18.316406zm27.65625-279c0-3.867188 3.132813-7 7-7 3.863282 0 7 3.132812 7 7v82.734375c0 43.542969 37.789063 78.964844 84 78.964844 46.207032 0 84-35.421875 84-78.964844v-82.734375c0-3.867188 3.132813-7 7-7 3.863282 0 7 3.132812 7 7v82.734375c0 51.265625-44.074218 92.964844-98 92.964844-53.929687 0-98-41.699219-98-92.964844zm0 0"/><path d="m104.101562 46c0-3.867188 3.632813-7 7.5-7h22.5v-14h-81v109h51zm0 0"/></svg>