<svg height="490pt" viewBox="-53 0 490 490.00151" width="490pt" xmlns="http://www.w3.org/2000/svg"><path d="m69.453125 490h245.3125c20.164063.113281 39.421875-8.375 52.9375-23.339844 12.34375-13.574218 18.210937-31.824218 16.089844-50.046875l-30.136719-261.730469c-.484375-3.996093-3.921875-6.976562-7.945312-6.882812h-15.601563v-140c0-4.417969-3.082031-8-7.5-8h-112c-4.417969 0-8.5 3.582031-8.5 8v45h-38v-20c0-4.417969-3.082031-8-7.5-8h-95c-4.417969 0-8.5 3.582031-8.5 8v115h-14.601563c-4.023437-.09375-7.460937 2.886719-7.945312 6.882812l-30.136719 261.835938c-2.117187 18.210938 3.753907 36.445312 16.097657 50 13.523437 14.945312 32.777343 23.414062 52.929687 23.28125zm148.65625-474h96v132h-77v-87c0-4.417969-3.082031-8-7.5-8h-11.5zm3 132h-87v-79h87zm-152-107h79v12h-21.5c-4.417969 0-8.5 3.582031-8.5 8v87h-49zm-52.789063 377.648438 29.320313-254.648438h292.933594l29.324219 254.648438c1.570312 13.65625-2.859376 27.324218-12.140626 37.464843-10.492187 11.53125-25.402343 18.039063-40.992187 17.886719h-245.3125c-15.585937.152344-30.5-6.351562-40.988281-17.882812-9.285156-10.140626-13.714844-23.808594-12.144532-37.46875zm0 0"/><path d="m195.109375 372.699219c54.476563 0 99-42.152344 99-93.964844v-82.734375c0-4.417969-3.582031-8-8-8s-8 3.582031-8 8v82.734375c0 42.992187-37.34375 77.964844-83 77.964844s-83-34.972657-83-77.964844v-82.734375c0-4.417969-3.582031-8-8-8s-8 3.582031-8 8v82.734375c0 51.8125 44.519531 93.964844 99 93.964844zm0 0"/></svg>