<svg height="512pt" viewBox="-102 0 512 512.001" width="512pt" xmlns="http://www.w3.org/2000/svg"><path d="m174 160c0 11.046875-8.953125 20-20 20s-20-8.953125-20-20 8.953125-20 20-20 20 8.953125 20 20zm134-160v257l-24.390625-5.488281c-36.300781-8.167969-72.898437-12.855469-109.609375-14.09375v117.113281c34.464844 8.90625 60 40.261719 60 77.46875 0 44.113281-35.886719 80-80 80s-80-35.886719-80-80c0-37.207031 25.535156-68.5625 60-77.46875v-117.089844c-36.566406 1.273438-73.175781 5.957032-109.652344 14.082032l-24.347656 5.421874v-256.945312zm-268 40v39h228v-39zm114 352c-22.054688 0-40 17.945312-40 40s17.945312 40 40 40 40-17.945312 40-40-17.945312-40-40-40zm114-184.503906v-88.496094h-228v88.535156c76.058594-13.945312 152.542969-13.957031 228-.039062zm0 0"/></svg>