<svg fill="#204782" height="512pt" viewBox="-21 0 512 512.00413" width="512pt" xmlns="http://www.w3.org/2000/svg">
<path d="m392.535156 290.136719c0 4.714843-3.820312 8.535156-8.53125 8.535156-4.714844 0-8.535156-3.820313-8.535156-8.535156 0-4.710938 3.820312-8.53125 8.535156-8.53125 4.710938 0 8.53125 3.820312 8.53125 8.53125zm0 0"/>
<path d="m469.335938 341.335938c0 4.714843-3.820313 8.535156-8.535157 8.535156-4.710937 0-8.53125-3.820313-8.53125-8.535156 0-4.710938 3.820313-8.53125 8.53125-8.53125 4.714844 0 8.535157 3.820312 8.535157 8.53125zm0 0"/>
<path d="m469.335938 307.203125c0 4.714844-3.820313 8.535156-8.535157 8.535156-4.710937 0-8.53125-3.820312-8.53125-8.535156 0-4.710937 3.820313-8.53125 8.53125-8.53125 4.714844 0 8.535157 3.820313 8.535157 8.53125zm0 0"/>
<path d="m469.335938 273.070312c0 4.714844-3.820313 8.535157-8.535157 8.535157-4.710937 0-8.53125-3.820313-8.53125-8.535157 0-4.710937 3.820313-8.53125 8.53125-8.53125 4.714844 0 8.535157 3.820313 8.535157 8.53125zm0 0"/>
<path d="m469.335938 238.9375c0 4.710938-3.820313 8.535156-8.535157 8.535156-4.710937 0-8.53125-3.824218-8.53125-8.535156s3.820313-8.535156 8.53125-8.535156c4.714844 0 8.535157 3.824218 8.535157 8.535156zm0 0"/>
<path d="m443.734375 324.269531c0 4.714844-3.820313 8.535157-8.53125 8.535157-4.714844 0-8.535156-3.820313-8.535156-8.535157 0-4.710937 3.820312-8.53125 8.535156-8.53125 4.710937 0 8.53125 3.820313 8.53125 8.53125zm0 0"/>
<path d="m443.734375 290.136719c0 4.714843-3.820313 8.535156-8.53125 8.535156-4.714844 0-8.535156-3.820313-8.535156-8.535156 0-4.710938 3.820312-8.53125 8.535156-8.53125 4.710937 0 8.53125 3.820312 8.53125 8.53125zm0 0"/>
<path d="m443.734375 256.003906c0 4.714844-3.820313 8.535156-8.53125 8.535156-4.714844 0-8.535156-3.820312-8.535156-8.535156 0-4.710937 3.820312-8.53125 8.535156-8.53125 4.710937 0 8.53125 3.820313 8.53125 8.53125zm0 0"/>
<path d="m418.136719 307.203125c0 4.714844-3.820313 8.535156-8.535157 8.535156-4.710937 0-8.53125-3.820312-8.53125-8.535156 0-4.710937 3.820313-8.53125 8.53125-8.53125 4.714844 0 8.535157 3.820313 8.535157 8.53125zm0 0"/>
<path d="m418.136719 273.070312c0 4.714844-3.820313 8.535157-8.535157 8.535157-4.710937 0-8.53125-3.820313-8.53125-8.535157 0-4.710937 3.820313-8.53125 8.53125-8.53125 4.714844 0 8.535157 3.820313 8.535157 8.53125zm0 0"/>
<path d="m8.097656 304.644531c5.027344 3.128907 11.320313 3.410157 16.605469.746094.441406-.226563.867187-.484375 1.265625-.78125l19.515625-14.472656h48.382813v9.429687c-.347657 4.566406-4.328126 7.984375-8.894532 7.636719-13.972656.257813-25.179687 11.625-25.238281 25.601563v17.066406c.015625 14.132812 11.46875 25.585937 25.601563 25.601562h1.886718l-11.261718 68.265625h-4.160157c-4.527343-.011719-8.871093 1.789063-12.066406 5l-12.066406 12.066407c-3.210938 3.191406-5.011719 7.539062-5 12.066406v22.066406c.011719 9.421875 7.644531 17.058594 17.066406 17.066406h153.601563c9.421874-.007812 17.058593-7.644531 17.066406-17.066406v-20.324219c.023437-6.472656-3.636719-12.390625-9.433594-15.265625l-27.617188-13.808594c-1.960937-.941406-4.082031-1.496093-6.25-1.640624l11.519532-69.8125c8.800781-3.140626 14.683594-11.460938 14.714844-20.800782v-6.828125c.039062-2.8125 2.308593-5.082031 5.121093-5.121093h11.945313v59.734374c0 2.261719.898437 4.433594 2.5 6.035157l42.667968 42.664062c3.347657 3.234375 8.667969 3.1875 11.960938-.101562 3.292969-3.292969 3.335938-8.617188.105469-11.964844l-40.167969-40.164063v-56.203124h42.667969c6.679687-.011719 12.734375-3.925782 15.496093-10.007813l22.777344-5.695313c7.601563-1.890624 12.933594-8.722656 12.925782-16.558593v-10.402344h17.066406c4.710937 0 8.53125-3.820313 8.53125-8.535156 0-4.710938-3.820313-8.53125-8.53125-8.53125h-17.066406v-10.40625c.007812-7.832031-5.324219-14.660157-12.925782-16.554688l-22.777344-5.691406c-2.757812-6.085937-8.816406-10-15.496093-10.015625h-18.28125c-3.867188-15.03125-17.398438-25.554688-32.921875-25.601562-6.132813.03125-12.140625 1.734374-17.382813 4.921874l-14.03125-33.847656c16.808594-11.347656 23.304688-32.957031 15.542969-51.695312l-36.511719-88.152344c9.257813-8.328125 11.171875-22.113281 4.523438-32.644531-6.644531-10.53125-19.914063-14.738281-31.414063-9.960938l-118.25 48.984375c-11.289062 4.675782-17.695312 16.679688-15.304687 28.660156 2.390625 11.980469 12.917969 20.605469 25.132812 20.589844.429688 0 .855469-.101562 1.28125-.125l36.515625 88.167969c7.742188 18.730469 27.605469 29.414063 47.5 25.550781l10.433594 25.152344h-101.484375l-19.515625-14.476562c-.398438-.292969-.824219-.554688-1.265625-.777344-5.292969-2.644532-11.574219-2.363282-16.609375.746094-5.03125 3.109374-8.09375 8.605468-8.08984375 14.519531v51.175781c-.02343745 5.921875 3.04687475 11.425781 8.09374975 14.519531zm96.425782 70.828125h76.570312l-11.265625 68.265625h-76.566406zm108.8125 99.140625v20.324219h-153.601563v-22.066406l12.066406-12.066406h113.921875zm110.933593-165.539062-17.066406 4.265625v-46.40625l17.066406 4.265625zm-34.132812 15.195312h-42.667969v-43.878906c11.945312-3.113281 21.273438-12.441406 24.386719-24.386719h18.28125zm-51.203125-93.867187c9.425781 0 17.070312 7.644531 17.070312 17.070312 0 9.421875-7.644531 17.066406-17.070312 17.066406-9.421875 0-17.066406-7.644531-17.066406-17.066406.011718-9.421875 7.648437-17.058594 17.066406-17.070312zm-195.609375-152.542969c-.867188-2.09375-.867188-4.441406 0-6.535156.867187-2.089844 2.527343-3.75 4.621093-4.617188l118.253907-48.980469c4.339843-1.757812 9.289062.316407 11.082031 4.644532s-.238281 9.289062-4.546875 11.121094h-.007813l-118.253906 48.984374c-4.355468 1.800782-9.34375-.265624-11.148437-4.617187zm61.480469 103.839844-35.914063-86.71875 51.242187-21.226563 51.246094-21.230468 35.921875 86.726562c5.410157 13.046875-.777343 28.011719-13.824219 33.429688l-.042968.007812-55.210938 22.867188-.03125.023437c-13.050781 5.347656-27.972656-.851563-33.386718-13.878906zm47.839843 26.367187 39.4375-16.335937 16.652344 40.175781c-1.167969 2.234375-2.078125 4.59375-2.71875 7.03125h-40.566406zm-24.640625 47.9375h78.011719c3.113281 11.945313 12.441406 21.273438 24.386719 24.386719v43.878906h-11.945313c-12.25.015625-22.171875 9.941407-22.1875 22.1875v6.828125c-.039062 2.8125-2.308593 5.082032-5.121093 5.117188h-105.8125c-4.710938-.003906-8.527344-3.820313-8.535157-8.53125v-17.066406c.019531-4.65625 3.753907-8.445313 8.410157-8.535157 6.6875.136719 13.15625-2.386719 17.980468-7.019531 4.824219-4.636719 7.609375-10.996094 7.742188-17.683594v-43.5625zm-34.136718 0v17.066406h-42.664063v-17.066406zm-76.796876-16.894531 17.066407 12.65625v25.542969l-17.066407 12.660156zm0 0"/>
<path d="m136.34375 168.636719-26.125-63.070313c-1.828125-4.316406-6.792969-6.351562-11.125-4.558594-4.332031 1.796876-6.402344 6.746094-4.640625 11.09375l26.125 63.070313c1.152344 2.839844 3.738281 4.84375 6.773437 5.25 3.039063.40625 6.058594-.84375 7.917969-3.28125s2.269531-5.679687 1.074219-8.503906zm0 0"/></svg>